<svg width="400" height="400" viewBox="0 0 400 400" fill="none" xmlns="http://www.w3.org/2000/svg">
<rect width="400" height="400" fill="#583DFF"/>
<path opacity="0.2" d="M158.42 269.424C144.437 311.004 88.9961 311.004 88.9961 311.004C88.9961 311.004 88.9961 255.563 130.577 241.581L158.42 269.424Z" fill="white"/>
<path opacity="0.2" d="M269.423 186.14V265.376C269.387 267.964 268.328 270.433 266.48 272.244L226.862 311.985C225.605 313.24 224.031 314.131 222.307 314.562C220.584 314.993 218.776 314.948 217.076 314.432C215.376 313.915 213.848 312.947 212.655 311.631C211.463 310.314 210.65 308.698 210.303 306.956L200 255.563L269.423 186.14Z" fill="white"/>
<path opacity="0.2" d="M213.86 130.577H134.624C132.036 130.614 129.567 131.672 127.756 133.52L88.015 173.138C86.7596 174.395 85.8689 175.969 85.438 177.693C85.0071 179.416 85.0522 181.225 85.5685 182.924C86.0847 184.624 87.0528 186.152 88.3693 187.345C89.6859 188.538 91.3015 189.351 93.0439 189.697L144.437 200L213.86 130.577Z" fill="white"/>
<path d="M158.42 269.424C144.437 311.004 88.9961 311.004 88.9961 311.004C88.9961 311.004 88.9961 255.563 130.577 241.581" stroke="white" stroke-width="12" stroke-linecap="round" stroke-linejoin="round"/>
<path d="M283.283 172.28L200 255.563L144.437 200L227.72 116.717C259.243 85.1939 290.765 85.5618 304.258 87.5243C306.34 87.8021 308.272 88.7573 309.757 90.2425C311.243 91.7277 312.198 93.6603 312.476 95.7423C314.438 109.234 314.806 140.757 283.283 172.28Z" stroke="white" stroke-width="12" stroke-linecap="round" stroke-linejoin="round"/>
<path d="M269.423 186.14V265.376C269.387 267.964 268.328 270.433 266.48 272.244L226.862 311.985C225.605 313.24 224.031 314.131 222.307 314.562C220.584 314.993 218.776 314.948 217.076 314.432C215.376 313.915 213.848 312.947 212.655 311.631C211.463 310.314 210.65 308.698 210.303 306.956L200 255.563" stroke="white" stroke-width="12" stroke-linecap="round" stroke-linejoin="round"/>
<path d="M213.86 130.577H134.624C132.036 130.614 129.567 131.672 127.756 133.52L88.015 173.138C86.7596 174.395 85.8689 175.969 85.438 177.693C85.0071 179.416 85.0522 181.225 85.5685 182.924C86.0847 184.624 87.0528 186.152 88.3693 187.345C89.6859 188.538 91.3015 189.351 93.0439 189.697L144.437 200" stroke="white" stroke-width="12" stroke-linecap="round" stroke-linejoin="round"/>
</svg>
